<svg width="908" height="111" viewBox="0 0 908 111" fill="none" xmlns="http://www.w3.org/2000/svg">
<path d="M40.8053 19.6609H0.00031054V0.000934273H104.028V19.6609H63.2233V110.535H40.8053V19.6609ZM142.522 0.000934273H166.284L219.748 110.535H196.198L187.358 91.936H122.792L114.235 110.535H90.6143L142.522 0.000934273ZM178.518 73.4783L154.615 23.2676L131.349 73.4783H178.518ZM213.759 0.000934273H272.81C280.023 0.000934273 286.294 0.778846 291.621 2.33467C296.996 3.84335 301.451 5.94135 304.987 8.62869C308.523 11.316 311.14 14.522 312.837 18.2465C314.581 21.9239 315.454 25.9078 315.454 30.1981C315.454 37.2228 313.238 43.3754 308.806 48.6558C313.898 51.6731 317.693 55.5863 320.192 60.3952C322.69 65.2041 323.94 70.6731 323.94 76.8021C323.94 81.941 323.068 86.5849 321.323 90.7338C319.626 94.8826 317.009 98.4422 313.473 101.412C309.985 104.335 305.553 106.598 300.178 108.201C294.851 109.757 288.557 110.535 281.296 110.535H213.759V0.000934273ZM281.438 42.4325C283.371 42.4325 285.256 42.5032 287.095 42.6447C290.254 39.6273 291.833 36.1856 291.833 32.3196C291.833 28.3122 290.254 25.2241 287.095 23.0554C283.983 20.8395 279.41 19.7316 273.376 19.7316H236.177V42.4325H281.438ZM281.862 91.0166C287.897 91.0166 292.47 89.7201 295.581 87.1271C298.74 84.534 300.32 80.8802 300.32 76.1656C300.32 71.451 298.74 67.7736 295.581 65.1334C292.47 62.4932 287.897 61.1731 281.862 61.1731H236.177V91.0166H281.862ZM323.538 0.000934273H345.956V90.8752H410.24V110.535H323.538V0.000934273ZM408.848 0.000934273H502.976V19.6609H431.266V41.7253H494.772V60.183H431.266V90.9459H504.461V110.535H408.848V0.000934273ZM539.489 19.6609H498.684V0.000934273H602.712V19.6609H561.907V110.535H539.489V19.6609ZM641.206 0.000934273H664.968L718.432 110.535H694.882L686.042 91.936H621.476L612.919 110.535H589.298L641.206 0.000934273ZM677.202 73.4783L653.299 23.2676L630.033 73.4783H677.202ZM712.443 0.000934273H734.861V90.8752H799.145V110.535H712.443V0.000934273ZM797.753 0.000934273H820.171V57.2128L878.515 0.000934273H907.227L852.773 52.7575L907.227 110.535H877.383L836.649 68.3865L820.171 84.2983V110.535H797.753V0.000934273Z" fill="#05010A"/>
</svg>
